Coordinates
version=1
nRows=27
nColumns=19
inDegrees=yes

Units are S.I. units (second, meters, Newtons, ...)
If the header above contains a line with 'inDegrees', this indicates whether rotational values are in degrees (yes) or radians (no).

endheader
time	pelvis_tilt	pelvis_list	pelvis_rotation	pelvis_tx	pelvis_ty	pelvis_tz	hip_flexion_r	hip_adduction_r	hip_rotation_r	knee_angle_r	knee_angle_r_beta	ankle_angle_r	hip_flexion_l	hip_adduction_l	hip_rotation_l	knee_angle_l	knee_angle_l_beta	ankle_angle_l
     17.25333333	     -4.67079601	      6.75790464	      1.74947345	      2.32675915	      1.07831188	      1.04117425	     -8.99628451	     -8.67399309	     -9.73311043	     38.68354188	      0.67515517	    -17.28142659	     22.09072373	      8.55761931	    -10.81279819	     12.14942855	      0.21204753	     -5.58061440
     17.26000000	     -4.19285596	      7.49700654	      1.73808323	      2.32675449	      1.07527677	      1.04098067	     -8.74695653	     -9.74012715	     -9.47980342	     41.21038207	      0.71925685	    -16.06562098	     21.53512614	      9.45098975	    -10.87142067	     12.79608384	      0.22333379	     -5.53011993
     17.26666667	     -3.67185653	      8.14841852	      1.89536592	      2.32655768	      1.07185038	      1.04063801	     -8.52018663	    -10.67461392	     -9.33610468	     43.75611158	      0.76368821	    -14.97076439	     21.06246813	     10.26666305	    -10.75993851	     13.98332716	      0.24405510	     -5.17918367
     17.27333333	     -3.22160935	      8.78940092	      1.97956958	      2.32626976	      1.06797141	      1.04041942	     -8.10908571	    -11.59456773	     -9.01802531	     46.38158984	      0.80951145	    -13.93939587	     20.71541061	     11.01962640	    -10.68964688	     15.47907558	      0.27016083	     -4.56247879
     17.28000000	     -2.76636266	      9.32035231	      2.07298634	      2.32581712	      1.06373008	      1.04031090	     -7.61679007	    -12.37485240	     -8.64752396	     49.05575142	      0.85618438	    -12.91232420	     20.38374320	     11.64545305	    -10.52487258	     17.22598616	      0.30065018	     -3.55382137
     17.28666667	     -2.31614689	      9.82632883	      2.15429306	      2.32518167	      1.05911065	      1.04015557	     -7.03304956	    -13.14698666	     -8.25372824	     51.77142590	      0.90358184	    -12.01863695	     20.09272614	     12.23218918	    -10.39124439	     19.19666726	      0.33504505	     -2.21601914
     17.29333333	     -2.57189238	     10.14569427	      2.12125969	      2.32442300	      1.05352007	      1.04022674	     -5.45092794	    -13.70558868	     -7.40016914	     54.64446213	      0.95372578	    -11.21882252	     20.60694571	     12.56529611	    -10.35962078	     21.34859055	      0.37260320	     -0.56660937
     17.30000000	     -1.86421755	     10.62864879	      2.21086863	      2.32350392	      1.04883494	      1.04037739	     -5.04360688	    -14.38072901	     -6.98760342	     57.28189586	      0.99975768	    -10.48969856	     19.91250941	     13.18068265	     -9.90312576	     23.30091495	      0.40667768	      1.45497292
     17.30666667	     -2.26022449	     10.86671234	      2.08675434	      2.32224018	      1.04273507	      1.04065282	     -3.07448664	    -14.83856470	     -5.93932196	     60.19843762	      1.05066094	     -9.76125515	     20.59378482	     13.34817895	    -10.18990304	     25.58410813	      0.44652692	      3.50716006
     17.31333333	     -1.63244239	     11.28487207	      2.21791054	      2.32093683	      1.03785596	      1.04094952	     -2.44667309	    -15.42500135	     -5.51485171	     62.77759702	      1.09567576	     -9.04727571	     19.92984276	     13.86299329	     -9.89820217	     27.53693176	      0.48061013	      5.84622969
     17.32000000	     -2.13981973	     11.48105970	      1.98112133	      2.31924425	      1.03176973	      1.04164667	     -0.13123822	    -15.75702482	     -4.23940751	     65.63365565	      1.14552339	     -8.33834434	     20.62979920	     13.96180686	    -10.15961545	     29.61184292	      0.51682416	      8.17514047
     17.32666667	     -1.57249981	     11.85103106	      2.10148182	      2.31754483	      1.02709901	      1.04210335	      0.71561356	    -16.24257134	     -3.71217369	     68.10595571	      1.18867317	     -7.55719984	     19.96431390	     14.39591534	     -9.93315080	     31.42912777	      0.54854176	     10.43590921
     17.33333333	     -2.04527335	     12.08712807	      1.78335442	      2.31558267	      1.02151158	      1.04306725	      3.14587197	    -16.54102087	     -2.33949136	     70.77445801	      1.23524732	     -6.79435771	     20.50089512	     14.48718527	    -10.29837927	     33.20516488	      0.57953946	     12.63273464
     17.34000000	     -1.95925448	     12.37158849	      1.69020557	      2.31352185	      1.01693440	      1.04382635	      4.82196655	    -16.88373443	     -1.41236361	     73.17392250	      1.27712587	     -6.00197883	     20.29167728	     14.72896671	    -10.31789043	     34.77387821	      0.60691867	     14.63854388
     17.34666667	     -1.42742797	     12.59759582	      1.79863084	      2.31149068	      1.01328587	      1.04433764	      5.87233358	    -17.17862361	     -0.87669839	     75.29832754	      1.31420374	     -5.17874581	     19.46509518	     15.00615294	     -9.97804411	     36.17595187	      0.63138947	     16.47302154
     17.35333333	     -1.76318521	     12.81606522	      1.40666807	      2.30933615	      1.00903101	      1.04532567	      8.29571990	    -17.36272622	      0.50599940	     77.52511017	      1.35306843	     -4.42225641	     19.60991012	     15.05725130	    -10.32189699	     37.42323362	      0.65315864	     18.06436574
     17.36000000	     -1.22061386	     12.87951339	      1.54900607	      2.30726714	      1.00642377	      1.04555301	      9.36715855	    -17.48698211	      0.94362179	     79.29732255	      1.38399937	     -3.69369607	     18.56917803	     15.21212030	     -9.78483891	     38.45873832	      0.67123161	     19.48884774
     17.36666667	     -1.47904193	     13.02301733	      1.07584013	      2.30525738	      1.00321065	      1.04637336	     11.74677376	    -17.54074802	      2.30760656	     81.13816848	      1.41612819	     -2.96199568	     18.41385611	     15.18766272	    -10.12094898	     39.29544817	      0.68583495	     20.65208473
     17.37333333	     -1.06277035	     12.93552708	      1.19461021	      2.30339780	      1.00155220	      1.04631309	     12.96480451	    -17.52050776	      2.67921692	     82.51367574	      1.44013532	     -2.33008318	     17.26781250	     15.20372175	     -9.52375990	     39.90703952	      0.69650923	     21.68680908
     17.38000000	     -1.16784965	     12.89050455	      0.74512031	      2.30161354	      0.99965294	      1.04680896	     15.08703135	    -17.34803366	      3.81756916	     83.85509557	      1.46354751	     -1.73157063	     16.66867648	     15.05200910	     -9.68581795	     40.28802407	      0.70315867	     22.52578032
     17.38666667	     -0.97880875	     12.66364508	      0.83583005	      2.30008210	      0.99883867	      1.04652150	     16.51736413	    -17.17498953	      4.12461499	     84.80495265	      1.48012565	     -1.17839161	     15.50590800	     14.93086420	     -9.11412954	     40.44249719	      0.70585473	     23.26185005
     17.39333333	     -0.84469091	     12.37170318	      0.91591041	      2.29860734	      0.99857546	      1.04615820	     17.97435124	    -16.91937294	      4.39361387	     85.52257733	      1.49265056	     -0.71788633	     14.28126415	     14.76169967	     -8.48965094	     40.36297948	      0.70446689	     23.76265417
     17.40000000	     -0.83939306	     12.02302793	      0.96688217	      2.29739451	      0.99869708	      1.04580987	     19.51573371	    -16.60708066	      4.60224118	     86.00380224	      1.50104952	     -0.22884288	     13.06425276	     14.51462626	     -7.94233493	     40.04584017	      0.69893176	     24.20829712
     17.40666667	     -1.00595593	     11.61316306	      0.97300502	      2.29659153	      0.99921427	      1.04550374	     21.16663281	    -16.19177310	      4.79221172	     86.23078163	      1.50501106	      0.24116650	     11.88958268	     14.18596844	     -7.50280340	     39.47747830	      0.68901198	     24.52426069
     17.41333333	     -1.21999196	     11.17086792	      1.05159174	      2.29569108	      1.00015460	      1.04512667	     22.79966425	    -15.77571047	      4.82565578	     86.24610971	      1.50527858	      0.69875503	     10.69746360	     13.82858994	     -7.03305278	     38.76122472	      0.67651099	     24.61880032
     17.42000000	     -1.55512014	     10.67964128	      1.14787690	      2.29517636	      1.00151002	      1.04478625	     24.43431218	    -15.31197562	      4.73839345	     85.99857232	      1.50095824	      1.17708631	      9.52079327	     13.42586362	     -6.55127470	     37.83820661	      0.66040129	     24.55132642
     17.42666667	     -1.99003338	     10.16268247	      1.30516058	      2.29495148	      1.00321704	      1.04445978	     26.04292615	    -14.83849976	      4.51350369	     85.50708189	      1.49238011	      1.71420319	      8.35967991	     12.98364236	     -6.08336278	     36.74849601	      0.64138225	     24.29847928
